<svg width="140" height="49" viewBox="0 0 140 49" fill="none" xmlns="http://www.w3.org/2000/svg">
<path d="M24.261 43.2353C34.5072 43.2353 42.8135 34.8472 42.8135 24.5C42.8135 14.1528 34.5072 5.76471 24.261 5.76471C14.0147 5.76471 5.70846 14.1528 5.70846 24.5C5.70846 34.8472 14.0147 43.2353 24.261 43.2353Z" fill="#2A67B2"/>
<path d="M17.1254 24.5L26.0962 28.1237C28.6365 29.1492 31.3965 27.2613 31.3965 24.5L22.4257 20.8763C19.8868 19.8508 17.1254 21.7387 17.1254 24.5Z" fill="white"/>
<path d="M29.6024 19.4599L17.1254 24.5V20.6866C17.1254 19.5081 17.8361 18.4485 18.9196 18.0107L31.3965 12.9706V16.7839C31.3965 17.9625 30.6858 19.0221 29.6024 19.4599Z" fill="white"/>
<path d="M29.6024 30.9893L17.1254 36.0294V32.2161C17.1254 31.0375 17.8361 29.9779 18.9196 29.5401L31.3965 24.5V28.3134C31.3965 29.4919 30.6858 30.5515 29.6024 30.9893Z" fill="white"/>
<path d="M31.3965 24.5L24.261 27.3824L17.1254 24.5L24.261 21.6176L31.3965 24.5Z" fill="white"/>
<path opacity="0.2" d="M31.3965 24.5L24.261 27.3824L17.1254 24.5L24.261 21.6176L31.3965 24.5Z" fill="#0A1013"/>
<path d="M68.3802 30.3224C67.6512 30.3224 67.0041 30.1843 66.4393 29.9084C65.8744 29.6326 65.432 29.2513 65.1121 28.7647C64.793 28.2788 64.6334 27.7202 64.6337 27.0889C64.6337 26.0896 65.0079 25.3174 65.756 24.7724C66.5041 24.2273 67.5484 23.9547 68.8888 23.9544C69.6783 23.9524 70.4646 24.0518 71.2293 24.2501V23.7373C71.2293 23.2119 71.0634 22.8207 70.7318 22.5645C70.4001 22.3083 69.9089 22.18 69.2581 22.18C68.8545 22.18 68.4024 22.2457 67.9015 22.3771C67.4006 22.5086 66.8121 22.719 66.1353 23.0081L65.003 20.6619C65.8487 20.2808 66.6653 19.9949 67.4525 19.8044C68.2292 19.615 69.0252 19.519 69.8241 19.5184C71.2552 19.5184 72.3678 19.8634 73.1616 20.5535C73.9553 21.2435 74.3524 22.2131 74.3526 23.4624V30.3224H71.2295V29.5153C70.8288 29.7969 70.3833 30.007 69.9123 30.1362C69.4502 30.2604 68.9393 30.3224 68.3802 30.3224ZM67.6381 27.0298C67.6381 27.3587 67.7808 27.6152 68.0662 27.7989C68.3516 27.9825 68.7486 28.0744 69.257 28.0747C69.6149 28.077 69.972 28.0372 70.3208 27.9565C70.6413 27.8824 70.9478 27.7556 71.2281 27.5818V26.2412C70.9264 26.162 70.6202 26.1026 70.3108 26.064C69.9937 26.0242 69.6743 26.0043 69.3546 26.0046C68.808 26.0046 68.3853 26.0934 68.0859 26.2709C67.7865 26.4485 67.6375 26.7015 67.6384 27.0298H67.6381Z" fill="#0A1013"/>
<path d="M76.031 30.3224V19.8928H79.1929V20.938C79.5129 20.5322 79.9202 20.205 80.3837 19.9816C80.8389 19.7657 81.3464 19.6576 81.9061 19.6576C82.4653 19.6709 82.8623 19.7562 83.0966 19.9139V22.6936C82.8737 22.5838 82.6374 22.5043 82.3939 22.457C82.1308 22.4045 81.863 22.378 81.5947 22.3783C81.1147 22.3751 80.6414 22.4939 80.2187 22.7242C79.7977 22.9525 79.4444 23.2891 79.1941 23.7001V30.3224H76.031Z" fill="#0A1013"/>
<path d="M87.9565 30.3224L83.5453 19.8929H86.9804L89.5372 26.2807L92.094 19.8929H95.4512L91.0402 30.3224H87.9565Z" fill="#0A1013"/>
<path d="M99.2961 30.3224C98.5674 30.3224 97.9207 30.1843 97.3552 29.9084C96.7898 29.6326 96.3474 29.2513 96.028 28.7647C95.7092 28.2788 95.5496 27.7202 95.5499 27.0889C95.5499 26.0896 95.9241 25.3174 96.6722 24.7724C97.4203 24.2273 98.4647 23.9547 99.8047 23.9544C100.595 23.9524 101.382 24.0515 102.147 24.2501V23.7373C102.147 23.2119 101.981 22.8207 101.649 22.5645C101.317 22.3083 100.826 22.18 100.175 22.18C99.7722 22.18 99.3201 22.2457 98.8192 22.3771C98.3182 22.5086 97.7294 22.719 97.0527 23.0081L95.9207 20.6619C96.7664 20.2808 97.5827 19.9949 98.3702 19.8044C99.1468 19.615 99.9429 19.519 100.742 19.5184C102.173 19.5184 103.285 19.8634 104.079 20.5535C104.873 21.2435 105.269 22.2131 105.269 23.4624V30.3224H102.146V29.5153C101.745 29.7969 101.299 30.007 100.828 30.1362C100.366 30.2604 99.8555 30.3224 99.2961 30.3224ZM98.554 27.0298C98.554 27.3587 98.6967 27.6152 98.9821 27.7989C99.2676 27.9825 99.6643 28.0744 100.173 28.0747C100.531 28.077 100.888 28.0372 101.236 27.9565C101.557 27.8824 101.864 27.7559 102.144 27.5818V26.2412C101.842 26.162 101.536 26.1029 101.227 26.064C100.909 26.0242 100.59 26.0043 100.27 26.0046C99.724 26.0046 99.3012 26.0934 99.0018 26.2709C98.7024 26.4485 98.5534 26.7015 98.5546 27.0298H98.554Z" fill="#0A1013"/>
<path d="M114.481 13.4108V20.3071C114.088 20.0828 113.668 19.9105 113.232 19.7943C113.175 19.7787 113.115 19.7655 113.057 19.7508C112.659 19.6609 112.253 19.6159 111.846 19.617C110.844 19.617 109.936 19.8537 109.123 20.3267C108.829 20.497 108.551 20.695 108.294 20.9176C107.856 21.2975 107.484 21.7471 107.191 22.2489C106.715 23.0571 106.478 23.9608 106.478 24.9598C106.478 25.9588 106.712 26.8618 107.18 27.6692C107.639 28.4676 108.295 29.1328 109.083 29.6004C109.884 30.0809 110.772 30.321 111.747 30.321C112.775 30.321 113.699 30.0186 114.519 29.4139V30.3224H117.642V12.133L114.481 13.4108ZM114.481 26.7736C114.201 27.0454 113.869 27.2567 113.505 27.3945C113.141 27.5326 112.738 27.6015 112.295 27.6017C111.788 27.6017 111.329 27.4864 110.919 27.2559C110.517 27.0331 110.18 26.7065 109.943 26.3093C109.702 25.9101 109.582 25.4607 109.582 24.9612C109.582 24.4617 109.703 24.0115 109.943 23.6108C110.18 23.2136 110.517 22.8871 110.919 22.6643C111.329 22.4337 111.788 22.3184 112.295 22.3184C112.707 22.3155 113.117 22.3855 113.505 22.5256C113.869 22.655 114.201 22.8597 114.481 23.1269V26.7736Z" fill="#0A1013"/>
<path d="M128.926 21.7067C128.586 21.0876 128.082 20.5757 127.471 20.2281C126.853 19.8733 126.141 19.696 125.334 19.6957C124.267 19.6957 123.343 19.9981 122.562 20.6028V10.1459L119.4 11.4233V30.3224H122.561V23.2643C122.777 23.0052 123.047 22.7965 123.351 22.653C123.657 22.5086 124.011 22.4365 124.415 22.4362C124.987 22.4362 125.443 22.6072 125.781 22.9487C126.12 23.2903 126.289 23.7503 126.289 24.3288V30.3224H129.451V23.8947C129.451 23.0672 129.276 22.3377 128.926 21.7067Z" fill="#0A1013"/>
<path d="M132.711 18.746C132.273 18.746 131.9 18.5923 131.591 18.2848C130.982 17.6789 130.975 16.6891 131.575 16.074C131.58 16.0683 131.586 16.0628 131.591 16.057C131.899 15.7506 132.272 15.5967 132.711 15.5958C133.149 15.595 133.522 15.7486 133.83 16.057C134.439 16.6629 134.446 17.6527 133.847 18.2678C133.841 18.2736 133.835 18.279 133.83 18.2848C133.521 18.5923 133.148 18.7463 132.711 18.746Z" fill="#0A1013"/>
<path d="M134.291 19.8929H131.13V30.3224H134.291V19.8929Z" fill="#0A1013"/>
<path d="M57.5755 30.3189C56.4638 30.3189 55.3652 30.0872 54.2798 29.624C53.2029 29.1668 52.2187 28.5134 51.3762 27.6965L53.2599 24.8949C54.0971 25.672 54.8689 26.2285 55.575 26.5646C56.28 26.9004 57.0504 27.0728 57.8299 27.069C58.353 27.069 58.7977 27.0094 59.1639 26.8898C59.5301 26.7701 59.8115 26.5946 60.0076 26.3629C60.202 26.136 60.3068 25.8449 60.3019 25.5449C60.3019 25.1116 60.1581 24.7756 59.8703 24.536C59.5826 24.2965 59.0923 24.1097 58.399 23.9757L55.3778 23.3704C54.2658 23.1464 53.4095 22.6608 52.809 21.9137C52.2084 21.1666 51.9076 20.2177 51.9065 19.0673C51.9065 18.0513 52.132 17.1771 52.5832 16.4444C53.0345 15.7117 53.6812 15.1514 54.5241 14.7634C55.3681 14.3752 56.3722 14.1812 57.5362 14.1812C58.5565 14.1812 59.5835 14.3792 60.6164 14.7752C61.6494 15.1713 62.5453 15.7204 63.304 16.4225L61.5187 19.2691C60.1064 18.0294 58.7004 17.4094 57.301 17.4094C56.8429 17.4094 56.4473 17.4653 56.1139 17.5775C55.7805 17.6896 55.5256 17.8464 55.349 18.0481C55.1728 18.2485 55.0781 18.5087 55.0841 18.7765C55.0841 19.1651 55.2117 19.464 55.4666 19.6729C55.7214 19.8819 56.1373 20.0462 56.7136 20.1658L59.5581 20.7037C60.879 20.9429 61.8829 21.4436 62.5696 22.2054C63.2563 22.9672 63.5991 23.9532 63.5983 25.1629C63.5983 26.2239 63.3562 27.1394 62.8724 27.9087C62.3886 28.678 61.6953 29.272 60.7928 29.6903C59.8903 30.1091 58.818 30.3186 57.5755 30.3189Z" fill="#0A1013"/>
<path d="M133.635 35.477L132.907 37.3403C132.772 37.6858 132.581 37.8585 132.335 37.8585C132.264 37.8585 132.204 37.8507 132.154 37.835V37.5833C132.209 37.6048 132.262 37.6155 132.313 37.6155C132.441 37.6155 132.538 37.5394 132.601 37.3872L132.725 37.093L132.096 35.477H132.41L132.829 36.6934L132.864 36.8266H132.871C132.877 36.7963 132.888 36.7529 132.906 36.6963L133.343 35.477H133.635Z" fill="#0A1013"/>
<path d="M131.856 37.0959H131.574V36.1752C131.574 35.8425 131.453 35.6761 131.213 35.6761C131.088 35.6761 130.986 35.7229 130.906 35.8166C130.825 35.9103 130.785 36.0289 130.785 36.1723V37.0959H130.501V35.477H130.785V35.7449H130.791C130.912 35.541 131.087 35.439 131.317 35.439C131.493 35.439 131.627 35.4961 131.719 35.6102C131.811 35.7234 131.856 35.8888 131.856 36.1064V37.0959Z" fill="#0A1013"/>
<path d="M128.898 35.5898C129.058 35.4892 129.242 35.439 129.45 35.439C129.837 35.439 130.03 35.6439 130.03 36.0537V37.0959H129.749V36.8456H129.742C129.631 37.0378 129.467 37.134 129.25 37.134C129.095 37.134 128.971 37.0915 128.879 37.0066C128.788 36.9217 128.742 36.8071 128.742 36.6626C128.742 36.3601 128.919 36.184 129.274 36.1342L129.749 36.0669C129.749 35.8025 129.641 35.6703 129.424 35.6703C129.232 35.6703 129.057 35.7356 128.898 35.8664V35.5898ZM129.374 36.3348C129.242 36.3523 129.151 36.3855 129.101 36.4343C129.052 36.4831 129.027 36.5514 129.027 36.6392C129.027 36.7163 129.054 36.7792 129.108 36.828C129.162 36.8768 129.234 36.9012 129.323 36.9012C129.447 36.9012 129.548 36.8573 129.629 36.7695C129.709 36.6817 129.749 36.5714 129.749 36.4387V36.2835L129.374 36.3348Z" fill="#0A1013"/>
<path d="M127.249 36.8676V37.8409H126.965V35.477H127.249V35.7566H127.255C127.38 35.5449 127.564 35.439 127.805 35.439C128.01 35.439 128.171 35.5117 128.287 35.6571C128.403 35.8015 128.462 35.9957 128.462 36.2396C128.462 36.509 128.396 36.7256 128.263 36.8895C128.132 37.0525 127.955 37.134 127.731 37.134C127.526 37.134 127.367 37.0452 127.255 36.8676H127.249ZM127.247 36.4284C127.247 36.5602 127.289 36.6714 127.373 36.7622C127.457 36.8519 127.563 36.8968 127.689 36.8968C127.84 36.8968 127.958 36.8383 128.043 36.7212C128.128 36.6041 128.171 36.4421 128.171 36.2352C128.171 36.0606 128.131 35.924 128.052 35.8254C127.972 35.7259 127.864 35.6761 127.727 35.6761C127.587 35.6761 127.472 35.7264 127.382 35.8269C127.292 35.9274 127.247 36.0562 127.247 36.2133V36.4284Z" fill="#0A1013"/>
<path d="M126.489 37.0959H126.205V36.1664C126.205 35.9908 126.178 35.8654 126.124 35.7903C126.07 35.7142 125.981 35.6761 125.857 35.6761C125.753 35.6761 125.664 35.7254 125.589 35.8239C125.515 35.9225 125.478 36.0391 125.478 36.1738V37.0959H125.193V36.1372C125.193 35.8298 125.076 35.6761 124.841 35.6761C124.733 35.6761 124.643 35.7229 124.572 35.8166C124.501 35.9103 124.466 36.0298 124.466 36.1752V37.0959H124.182V35.477H124.466V35.7332H124.472C124.586 35.5371 124.752 35.439 124.972 35.439C125.079 35.439 125.174 35.4688 125.256 35.5283C125.338 35.5878 125.395 35.6683 125.427 35.7698C125.546 35.5493 125.723 35.439 125.96 35.439C126.313 35.439 126.489 35.6585 126.489 36.0977V37.0959Z" fill="#0A1013"/>
<path d="M122.187 36.304C122.187 36.0367 122.261 35.8259 122.409 35.6717C122.557 35.5166 122.757 35.439 123.011 35.439C123.251 35.439 123.44 35.5136 123.576 35.6629C123.713 35.8113 123.782 36.0167 123.782 36.2792C123.782 36.5348 123.709 36.7412 123.563 36.8983C123.417 37.0554 123.221 37.134 122.976 37.134C122.736 37.134 122.545 37.0578 122.402 36.9056C122.259 36.7534 122.187 36.5529 122.187 36.304ZM122.477 36.2953C122.477 36.4816 122.524 36.6285 122.616 36.7358C122.71 36.8432 122.836 36.8968 122.993 36.8968C123.156 36.8968 123.279 36.8446 123.364 36.7402C123.449 36.6348 123.492 36.4841 123.492 36.2879C123.492 36.0908 123.449 35.9396 123.364 35.8342C123.279 35.7288 123.156 35.6761 122.993 35.6761C122.834 35.6761 122.708 35.7312 122.615 35.8415C122.523 35.9518 122.477 36.103 122.477 36.2953Z" fill="#0A1013"/>
<path d="M121.882 37.0022C121.716 37.09 121.509 37.1339 121.26 37.1339C120.938 37.1339 120.681 37.031 120.489 36.8251C120.296 36.6182 120.2 36.345 120.2 36.0054C120.2 35.6405 120.308 35.3468 120.525 35.1243C120.741 34.9018 121.016 34.7906 121.35 34.7906C121.564 34.7906 121.741 34.8213 121.882 34.8828V35.1887C121.721 35.0989 121.545 35.054 121.352 35.054C121.102 35.054 120.898 35.1384 120.741 35.3073C120.583 35.4751 120.505 35.702 120.505 35.9879C120.505 36.2591 120.578 36.4748 120.725 36.6348C120.872 36.7939 121.064 36.8734 121.302 36.8734C121.524 36.8734 121.717 36.8227 121.882 36.7212V37.0022Z" fill="#0A1013"/>
<path d="M118.923 37.0959H118.639V36.8266H118.633C118.516 37.0315 118.335 37.1339 118.088 37.1339C117.886 37.1339 117.724 37.0612 117.604 36.9158C117.485 36.7695 117.425 36.5724 117.425 36.3245C117.425 36.0571 117.492 35.843 117.628 35.6819C117.763 35.52 117.94 35.439 118.158 35.439C118.376 35.439 118.535 35.5248 118.633 35.6966H118.639V34.6998H118.923V37.0959ZM118.641 36.1328C118.641 36.003 118.598 35.8947 118.513 35.8078C118.429 35.72 118.325 35.6761 118.201 35.6761C118.051 35.6761 117.932 35.7332 117.845 35.8473C117.758 35.9605 117.714 36.1152 117.714 36.3113C117.714 36.4919 117.756 36.6348 117.839 36.7402C117.923 36.8446 118.035 36.8968 118.174 36.8968C118.311 36.8968 118.423 36.8456 118.51 36.7431C118.597 36.6397 118.641 36.5114 118.641 36.3582V36.1328Z" fill="#0A1013"/>
<path d="M117.154 36.3597H116.032C116.037 36.5324 116.083 36.6661 116.172 36.7607C116.261 36.8544 116.385 36.9012 116.545 36.9012C116.725 36.9012 116.889 36.8432 117.039 36.727V36.9832C116.898 37.0837 116.711 37.134 116.478 37.134C116.246 37.134 116.065 37.0598 115.935 36.9115C115.805 36.7631 115.74 36.5573 115.74 36.2938C115.74 36.0459 115.811 35.8415 115.953 35.6805C116.096 35.5195 116.274 35.439 116.485 35.439C116.695 35.439 116.859 35.5073 116.977 35.6439C117.095 35.7795 117.154 35.9698 117.154 36.2147V36.3597ZM116.869 36.1299C116.868 35.9835 116.834 35.8703 116.767 35.7903C116.699 35.7103 116.604 35.6703 116.481 35.6703C116.368 35.6703 116.27 35.7127 116.187 35.7976C116.105 35.8825 116.053 35.9932 116.032 36.1299H116.869Z" fill="#0A1013"/>
<path d="M115.021 34.9062C115.021 34.8554 115.038 34.813 115.072 34.7788C115.107 34.7437 115.149 34.7262 115.2 34.7262C115.251 34.7262 115.294 34.7432 115.329 34.7774C115.364 34.8115 115.382 34.8545 115.382 34.9062C115.382 34.9569 115.364 34.9994 115.329 35.0335C115.294 35.0667 115.251 35.0833 115.2 35.0833C115.149 35.0833 115.106 35.0667 115.072 35.0335C115.038 34.9994 115.021 34.9569 115.021 34.9062ZM115.055 37.0959V35.477H115.339V37.0959H115.055Z" fill="#0A1013"/>
<path d="M114.849 34.9443C114.796 34.916 114.738 34.9018 114.677 34.9018C114.499 34.9018 114.41 35.0131 114.41 35.2355V35.477H114.785V35.7142H114.41V37.0959H114.129V35.7142H113.855V35.477H114.129V35.2224C114.129 35.0487 114.178 34.9125 114.276 34.814C114.376 34.7145 114.502 34.6647 114.655 34.6647C114.736 34.6647 114.801 34.674 114.849 34.6925V34.9443Z" fill="#0A1013"/>
<path d="M113.201 34.9062C113.201 34.8554 113.218 34.813 113.252 34.7788C113.287 34.7437 113.329 34.7262 113.379 34.7262C113.43 34.7262 113.473 34.7432 113.508 34.7774C113.544 34.8115 113.562 34.8545 113.562 34.9062C113.562 34.9569 113.544 34.9994 113.508 35.0335C113.473 35.0667 113.43 35.0833 113.379 35.0833C113.328 35.0833 113.286 35.0667 113.252 35.0335C113.218 34.9994 113.201 34.9569 113.201 34.9062ZM113.234 37.0959V35.477H113.518V37.0959H113.234Z" fill="#0A1013"/>
<path d="M112.898 37.0798C112.836 37.114 112.753 37.131 112.647 37.131C112.36 37.131 112.217 36.9705 112.217 36.6495V35.7142H111.941V35.4771H112.217V35.0877L112.499 34.997V35.4771H112.898V35.7142H112.499V36.5982C112.499 36.7046 112.517 36.7807 112.553 36.8266C112.589 36.8724 112.648 36.8954 112.731 36.8954C112.795 36.8954 112.851 36.8773 112.898 36.8412V37.0798Z" fill="#0A1013"/>
<path d="M111.854 35.761C111.807 35.7268 111.742 35.7098 111.659 35.7098C111.549 35.7098 111.458 35.762 111.386 35.8664C111.315 35.9698 111.279 36.1064 111.279 36.2762V37.0959H110.995V35.477H111.279V35.8064H111.285C111.366 35.5683 111.506 35.4492 111.705 35.4492C111.77 35.4492 111.82 35.4565 111.854 35.4712V35.761Z" fill="#0A1013"/>
<path d="M110.617 36.3597H109.495C109.5 36.5324 109.547 36.6661 109.635 36.7607C109.724 36.8544 109.848 36.9012 110.008 36.9012C110.188 36.9012 110.352 36.8432 110.502 36.727V36.9832C110.361 37.0837 110.174 37.134 109.941 37.134C109.709 37.134 109.528 37.0598 109.398 36.9115C109.268 36.7631 109.204 36.5573 109.204 36.2938C109.204 36.0459 109.275 35.8415 109.417 35.6805C109.56 35.5195 109.737 35.439 109.949 35.439C110.158 35.439 110.322 35.5073 110.44 35.6439C110.558 35.7795 110.617 35.9698 110.617 36.2147V36.3597ZM110.333 36.1299C110.332 35.9835 110.297 35.8703 110.23 35.7903C110.162 35.7103 110.067 35.6703 109.944 35.6703C109.831 35.6703 109.733 35.7127 109.65 35.7976C109.568 35.8825 109.516 35.9932 109.495 36.1299H110.333Z" fill="#0A1013"/>
<path d="M108.898 37.0022C108.732 37.09 108.525 37.1339 108.276 37.1339C107.954 37.1339 107.697 37.031 107.505 36.8251C107.313 36.6182 107.216 36.345 107.216 36.0054C107.216 35.6405 107.325 35.3468 107.541 35.1243C107.757 34.9018 108.032 34.7906 108.366 34.7906C108.58 34.7906 108.758 34.8213 108.898 34.8828V35.1887C108.737 35.0989 108.561 35.054 108.369 35.054C108.118 35.054 107.915 35.1384 107.757 35.3073C107.599 35.4751 107.521 35.702 107.521 35.9879C107.521 36.2591 107.594 36.4748 107.741 36.6348C107.888 36.7939 108.08 36.8734 108.318 36.8734C108.54 36.8734 108.733 36.8227 108.898 36.7212V37.0022Z" fill="#0A1013"/>
<path d="M105.057 36.7022H106.009V37.0959H104.516V36.9276C104.516 36.8095 104.537 36.7017 104.58 36.6041C104.623 36.5065 104.683 36.4158 104.758 36.3318C104.834 36.2469 104.95 36.1479 105.109 36.0347C105.254 35.9254 105.355 35.8288 105.413 35.7449C105.471 35.66 105.5 35.5702 105.5 35.4756C105.5 35.2716 105.39 35.1697 105.17 35.1697C104.977 35.1697 104.792 35.2477 104.616 35.4039V34.9823C104.812 34.8545 105.033 34.7906 105.277 34.7906C105.501 34.7906 105.679 34.8486 105.809 34.9647C105.939 35.0799 106.005 35.2389 106.005 35.4419C106.005 35.5551 105.986 35.6576 105.948 35.7493C105.91 35.84 105.856 35.9254 105.784 36.0054C105.713 36.0855 105.598 36.1816 105.441 36.2938C105.289 36.4031 105.187 36.4875 105.135 36.547C105.083 36.6065 105.057 36.6582 105.057 36.7022Z" fill="#0A1013"/>
<path d="M103.225 36.7022H104.177V37.0959H102.684V36.9276C102.684 36.8095 102.705 36.7017 102.748 36.6041C102.791 36.5065 102.851 36.4158 102.926 36.3318C103.001 36.2469 103.118 36.1479 103.277 36.0347C103.422 35.9254 103.523 35.8288 103.581 35.7449C103.639 35.66 103.668 35.5702 103.668 35.4756C103.668 35.2716 103.558 35.1697 103.338 35.1697C103.144 35.1697 102.96 35.2477 102.784 35.4039V34.9823C102.98 34.8545 103.201 34.7906 103.445 34.7906C103.669 34.7906 103.846 34.8486 103.977 34.9647C104.107 35.0799 104.173 35.2389 104.173 35.4419C104.173 35.5551 104.154 35.6576 104.116 35.7493C104.078 35.84 104.024 35.9254 103.952 36.0054C103.881 36.0855 103.766 36.1816 103.609 36.2938C103.457 36.4031 103.355 36.4875 103.303 36.547C103.251 36.6065 103.225 36.6582 103.225 36.7022Z" fill="#0A1013"/>
<path d="M100.81 35.9996C100.81 35.6073 100.881 35.3077 101.024 35.1009C101.167 34.894 101.374 34.7906 101.645 34.7906C102.161 34.7906 102.419 35.176 102.419 35.9469C102.419 36.3265 102.349 36.6197 102.209 36.8266C102.069 37.0325 101.866 37.1354 101.601 37.1354C101.074 37.1354 100.81 36.7568 100.81 35.9996ZM101.284 35.9879C101.284 36.5109 101.395 36.7724 101.616 36.7724C101.833 36.7724 101.942 36.5031 101.942 35.9645C101.942 35.4239 101.836 35.1536 101.625 35.1536C101.397 35.1536 101.284 35.4317 101.284 35.9879Z" fill="#0A1013"/>
<path d="M99.5606 36.7022H100.513V37.0959H99.0199V36.9276C99.0199 36.8095 99.0412 36.7017 99.0837 36.6041C99.1272 36.5065 99.1866 36.4158 99.262 36.3318C99.3374 36.2469 99.4543 36.1479 99.6128 36.0347C99.7577 35.9254 99.8592 35.8288 99.9171 35.7449C99.9751 35.66 100.004 35.5702 100.004 35.4756C100.004 35.2716 99.8939 35.1697 99.6736 35.1697C99.4804 35.1697 99.2958 35.2477 99.12 35.4039V34.9823C99.3161 34.8545 99.5364 34.7906 99.7809 34.7906C100.005 34.7906 100.182 34.8486 100.313 34.9647C100.443 35.0799 100.508 35.2389 100.508 35.4419C100.508 35.5551 100.49 35.6576 100.452 35.7493C100.414 35.84 100.36 35.9254 100.288 36.0054C100.217 36.0855 100.102 36.1816 99.9447 36.2938C99.793 36.4031 99.691 36.4875 99.6388 36.547C99.5867 36.6065 99.5606 36.6582 99.5606 36.7022Z" fill="#0A1013"/>
<path d="M98.1604 35.7054C98.1604 35.6332 98.188 35.5736 98.2431 35.5268C98.2981 35.48 98.3638 35.4565 98.4402 35.4565C98.5175 35.4565 98.5827 35.48 98.6359 35.5268C98.689 35.5736 98.7156 35.6332 98.7156 35.7054C98.7156 35.7805 98.689 35.8415 98.6359 35.8883C98.5827 35.9342 98.5156 35.9571 98.4344 35.9571C98.3571 35.9571 98.2919 35.9332 98.2387 35.8854C98.1865 35.8376 98.1604 35.7776 98.1604 35.7054ZM98.1604 36.8836C98.1604 36.8105 98.188 36.7505 98.2431 36.7036C98.2981 36.6568 98.3638 36.6334 98.4402 36.6334C98.5175 36.6334 98.5827 36.6573 98.6359 36.7051C98.689 36.7529 98.7156 36.8124 98.7156 36.8836C98.7156 36.9588 98.689 37.0198 98.6359 37.0666C98.5827 37.1125 98.5156 37.1354 98.4344 37.1354C98.359 37.1354 98.2943 37.1115 98.2402 37.0637C98.187 37.0159 98.1604 36.9559 98.1604 36.8836Z" fill="#0A1013"/>
<path d="M97.443 34.7789V37.0959H96.9719V35.3116C96.9139 35.3624 96.8347 35.4082 96.7342 35.4492C96.6337 35.4892 96.5414 35.5141 96.4574 35.5239V35.1184C96.7221 35.0404 96.9511 34.9272 97.1444 34.7789H97.443Z" fill="#0A1013"/>
<path d="M94.4644 35.9996C94.4644 35.6073 94.536 35.3077 94.679 35.1009C94.822 34.894 95.0288 34.7906 95.2993 34.7906C95.8153 34.7906 96.0733 35.176 96.0733 35.9469C96.0733 36.3265 96.0032 36.6197 95.8631 36.8266C95.723 37.0325 95.5206 37.1354 95.2558 37.1354C94.7282 37.1354 94.4644 36.7568 94.4644 35.9996ZM94.9384 35.9879C94.9384 36.5109 95.049 36.7724 95.2703 36.7724C95.4877 36.7724 95.5964 36.5031 95.5964 35.9645C95.5964 35.4239 95.4906 35.1536 95.279 35.1536C95.0519 35.1536 94.9384 35.4317 94.9384 35.9879Z" fill="#0A1013"/>
<path d="M92.6324 35.9996C92.6324 35.6073 92.7039 35.3077 92.8469 35.1009C92.9899 34.894 93.1967 34.7906 93.4672 34.7906C93.9832 34.7906 94.2412 35.176 94.2412 35.9469C94.2412 36.3265 94.1712 36.6197 94.0311 36.8266C93.8909 37.0325 93.6885 37.1354 93.4237 37.1354C92.8962 37.1354 92.6324 36.7568 92.6324 35.9996ZM93.1063 35.9879C93.1063 36.5109 93.217 36.7724 93.4382 36.7724C93.6557 36.7724 93.7644 36.5031 93.7644 35.9645C93.7644 35.4239 93.6586 35.1536 93.4469 35.1536C93.2199 35.1536 93.1063 35.4317 93.1063 35.9879Z" fill="#0A1013"/>
<path d="M92.3918 35.117C92.2101 35.4458 92.0743 35.7107 91.9845 35.9117C91.8956 36.1128 91.8231 36.3084 91.7671 36.4987C91.711 36.689 91.668 36.888 91.6381 37.0959H91.1351C91.1834 36.8002 91.2685 36.5011 91.3902 36.1986C91.5129 35.8952 91.682 35.5683 91.8975 35.218H90.8264V34.8286H92.3918V35.117Z" fill="#0A1013"/>
<path d="M89.5509 36.7022H90.5032V37.0959H89.0103V36.9276C89.0103 36.8095 89.0315 36.7017 89.0741 36.6041C89.1175 36.5065 89.177 36.4158 89.2523 36.3318C89.3277 36.2469 89.4446 36.1479 89.6031 36.0347C89.748 35.9254 89.8495 35.8288 89.9075 35.7449C89.9654 35.66 89.9944 35.5702 89.9944 35.4756C89.9944 35.2716 89.8843 35.1697 89.664 35.1697C89.4707 35.1697 89.2862 35.2477 89.1103 35.4039V34.9823C89.3064 34.8545 89.5268 34.7906 89.7712 34.7906C89.9954 34.7906 90.1727 34.8486 90.3032 34.9647C90.4336 35.0799 90.4988 35.2389 90.4988 35.4419C90.4988 35.5551 90.48 35.6576 90.4423 35.7493C90.4046 35.84 90.35 35.9254 90.2785 36.0054C90.207 36.0855 90.0925 36.1816 89.935 36.2938C89.7833 36.4031 89.6814 36.4875 89.6292 36.547C89.577 36.6065 89.5509 36.6582 89.5509 36.7022Z" fill="#0A1013"/>
<path d="M85.6607 35.9923C85.6607 35.6371 85.7631 35.3482 85.968 35.1258C86.1738 34.9023 86.4453 34.7906 86.7825 34.7906C87.1033 34.7906 87.3613 34.8984 87.5565 35.114C87.7527 35.3297 87.8508 35.6068 87.8508 35.9454C87.8508 36.2987 87.7488 36.5855 87.5449 36.8061C87.342 37.0256 87.0758 37.1354 86.7463 37.1354C86.4245 37.1354 86.1632 37.029 85.9622 36.8163C85.7612 36.6026 85.6607 36.3279 85.6607 35.9923ZM86.1636 35.9659C86.1636 36.1864 86.2163 36.367 86.3216 36.5075C86.4269 36.647 86.5714 36.7168 86.755 36.7168C86.9425 36.7168 87.0884 36.6499 87.1927 36.5163C87.2971 36.3816 87.3493 36.2011 87.3493 35.9747C87.3493 35.7386 87.2985 35.5522 87.1971 35.4156C87.0956 35.278 86.9526 35.2092 86.768 35.2092C86.5806 35.2092 86.4327 35.2794 86.3245 35.42C86.2173 35.5605 86.1636 35.7425 86.1636 35.9659Z" fill="#0A1013"/>
<path d="M83.9127 36.525C84.0934 36.6763 84.2987 36.7519 84.5287 36.7519C84.6591 36.7519 84.7572 36.7295 84.8229 36.6846C84.8886 36.6387 84.9215 36.5802 84.9215 36.5089C84.9215 36.4475 84.8954 36.3894 84.8432 36.3348C84.791 36.2801 84.6533 36.206 84.4301 36.1123C84.0794 35.962 83.904 35.7434 83.904 35.4566C83.904 35.2458 83.9832 35.0823 84.1417 34.9662C84.3011 34.8491 84.5118 34.7906 84.7736 34.7906C84.993 34.7906 85.1771 34.8194 85.3259 34.8769V35.3307C85.1751 35.2272 84.9988 35.1755 84.7968 35.1755C84.679 35.1755 84.5847 35.1975 84.5142 35.2414C84.4437 35.2843 84.4084 35.3424 84.4084 35.4156C84.4084 35.4741 84.4326 35.5283 84.4809 35.578C84.5292 35.6268 84.6485 35.6932 84.8389 35.7771C85.0621 35.8737 85.2152 35.9757 85.2983 36.083C85.3824 36.1903 85.4244 36.3182 85.4244 36.4665C85.4244 36.6841 85.3481 36.85 85.1954 36.9642C85.0428 37.0783 84.8258 37.1354 84.5446 37.1354C84.2876 37.1354 84.077 37.0934 83.9127 37.0095V36.525Z" fill="#0A1013"/>
<path d="M83.4953 34.8286V37.0959H83.017V34.8286H83.4953Z" fill="#0A1013"/>
<path d="M81.0545 36.7885C80.8332 37.0178 80.5641 37.1325 80.2471 37.1325C80.0114 37.1325 79.8239 37.0744 79.6848 36.9583C79.5466 36.8412 79.4775 36.6802 79.4775 36.4753C79.4775 36.1669 79.6514 35.9371 79.9993 35.7859C79.8254 35.6522 79.7384 35.4936 79.7384 35.3102C79.7384 35.1521 79.793 35.0262 79.9022 34.9325C80.0114 34.8379 80.1549 34.7906 80.3326 34.7906C80.4998 34.7906 80.6351 34.8355 80.7385 34.9252C80.8428 35.014 80.895 35.1301 80.895 35.2736C80.895 35.5078 80.753 35.6834 80.4689 35.8005C80.6844 35.8844 80.8887 36.0752 81.082 36.3728C81.2511 36.1377 81.3356 35.8605 81.3356 35.5414C81.3356 35.4653 81.326 35.3926 81.3067 35.3234H81.5762C81.5907 35.3819 81.598 35.4522 81.598 35.5341C81.598 35.7049 81.5646 35.8839 81.498 36.0713C81.4323 36.2577 81.3405 36.4304 81.2226 36.5895C81.3028 36.6997 81.3699 36.7753 81.4241 36.8163C81.4791 36.8563 81.5419 36.8763 81.6125 36.8763C81.6705 36.8763 81.7391 36.8607 81.8183 36.8295V37.0856C81.7371 37.1169 81.6531 37.1325 81.5661 37.1325C81.4753 37.1325 81.3931 37.111 81.3197 37.0681C81.2472 37.0251 81.1588 36.932 81.0545 36.7885ZM80.2544 35.6805C80.5046 35.5936 80.6298 35.4658 80.6298 35.297C80.6298 35.2102 80.6013 35.1414 80.5443 35.0906C80.4873 35.0389 80.4167 35.0131 80.3326 35.0131C80.2322 35.0131 80.1524 35.0409 80.0935 35.0965C80.0346 35.1511 80.0051 35.2228 80.0051 35.3116C80.0051 35.4658 80.0882 35.5888 80.2544 35.6805ZM80.9211 36.5836C80.8013 36.3943 80.6907 36.2518 80.5892 36.1562C80.4877 36.0596 80.3592 35.9815 80.2036 35.922C80.0461 35.9864 79.9336 36.0615 79.8659 36.1474C79.7983 36.2323 79.7645 36.3382 79.7645 36.465C79.7645 36.5968 79.8094 36.7007 79.8993 36.7768C79.9891 36.8519 80.1061 36.8895 80.25 36.8895C80.5148 36.8895 80.7385 36.7875 80.9211 36.5836Z" fill="#0A1013"/>
<path d="M76.8381 37.0373V36.629C76.9937 36.7246 77.1594 36.7724 77.3353 36.7724C77.4676 36.7724 77.571 36.7397 77.6454 36.6743C77.7208 36.608 77.7585 36.5187 77.7585 36.4065C77.7585 36.1713 77.5991 36.0537 77.2802 36.0537C77.1623 36.0537 77.0265 36.0625 76.8729 36.0801L76.957 34.8286H78.1455V35.218H77.3353L77.3034 35.6951C77.3836 35.6883 77.4575 35.6849 77.5251 35.6849C77.7445 35.6849 77.9174 35.7454 78.044 35.8664C78.1716 35.9874 78.2353 36.1513 78.2353 36.3582C78.2353 36.5865 78.1585 36.7734 78.0049 36.9188C77.8513 37.0632 77.6425 37.1354 77.3787 37.1354C77.1652 37.1354 76.985 37.1027 76.8381 37.0373Z" fill="#0A1013"/>
<path d="M76.0148 34.7789V37.0959H75.5438V35.3116C75.4858 35.3624 75.4066 35.4082 75.3061 35.4492C75.2056 35.4892 75.1133 35.5141 75.0292 35.5239V35.1184C75.294 35.0404 75.523 34.9272 75.7162 34.7789H76.0148Z" fill="#0A1013"/>
<path d="M73.0363 35.9996C73.0363 35.6073 73.1078 35.3077 73.2508 35.1009C73.3938 34.894 73.6006 34.7906 73.8711 34.7906C74.3871 34.7906 74.6451 35.176 74.6451 35.9469C74.6451 36.3265 74.5751 36.6197 74.435 36.8266C74.2949 37.0325 74.0924 37.1354 73.8277 37.1354C73.3001 37.1354 73.0363 36.7568 73.0363 35.9996ZM73.5102 35.9879C73.5102 36.5109 73.6209 36.7724 73.8422 36.7724C74.0596 36.7724 74.1683 36.5031 74.1683 35.9645C74.1683 35.4239 74.0625 35.1536 73.8509 35.1536C73.6238 35.1536 73.5102 35.4317 73.5102 35.9879Z" fill="#0A1013"/>
<path d="M71.7869 36.7022H72.7392V37.0959H71.2463V36.9276C71.2463 36.8095 71.2675 36.7017 71.31 36.6041C71.3535 36.5065 71.413 36.4158 71.4883 36.3318C71.5637 36.2469 71.6806 36.1479 71.8391 36.0347C71.984 35.9254 72.0855 35.8288 72.1435 35.7449C72.2014 35.66 72.2304 35.5702 72.2304 35.4756C72.2304 35.2716 72.1203 35.1697 71.9 35.1697C71.7067 35.1697 71.5221 35.2477 71.3463 35.4039V34.9823C71.5424 34.8545 71.7627 34.7906 72.0072 34.7906C72.2314 34.7906 72.4087 34.8486 72.5391 34.9647C72.6696 35.0799 72.7348 35.2389 72.7348 35.4419C72.7348 35.5551 72.716 35.6576 72.6783 35.7493C72.6406 35.84 72.586 35.9254 72.5145 36.0054C72.443 36.0855 72.3285 36.1816 72.171 36.2938C72.0193 36.4031 71.9173 36.4875 71.8652 36.547C71.813 36.6065 71.7869 36.6582 71.7869 36.7022Z" fill="#0A1013"/>
<path d="M70.3868 35.7054C70.3868 35.6332 70.4143 35.5736 70.4694 35.5268C70.5245 35.48 70.5902 35.4565 70.6665 35.4565C70.7438 35.4565 70.809 35.48 70.8622 35.5268C70.9153 35.5736 70.9419 35.6332 70.9419 35.7054C70.9419 35.7805 70.9153 35.8415 70.8622 35.8883C70.809 35.9342 70.7419 35.9571 70.6607 35.9571C70.5834 35.9571 70.5182 35.9332 70.465 35.8854C70.4129 35.8376 70.3868 35.7776 70.3868 35.7054ZM70.3868 36.8836C70.3868 36.8105 70.4143 36.7505 70.4694 36.7036C70.5245 36.6568 70.5902 36.6334 70.6665 36.6334C70.7438 36.6334 70.809 36.6573 70.8622 36.7051C70.9153 36.7529 70.9419 36.8124 70.9419 36.8836C70.9419 36.9588 70.9153 37.0198 70.8622 37.0666C70.809 37.1125 70.7419 37.1354 70.6607 37.1354C70.5853 37.1354 70.5206 37.1115 70.4665 37.0637C70.4133 37.0159 70.3868 36.9559 70.3868 36.8836Z" fill="#0A1013"/>
<path d="M69.6693 34.7789V37.0959H69.1983V35.3116C69.1403 35.3624 69.061 35.4082 68.9605 35.4492C68.8601 35.4892 68.7678 35.5141 68.6837 35.5239V35.1184C68.9485 35.0404 69.1775 34.9272 69.3707 34.7789H69.6693Z" fill="#0A1013"/>
<path d="M66.6908 35.9996C66.6908 35.6073 66.7623 35.3077 66.9053 35.1009C67.0483 34.894 67.2551 34.7906 67.5256 34.7906C68.0416 34.7906 68.2996 35.176 68.2996 35.9469C68.2996 36.3265 68.2296 36.6197 68.0894 36.8266C67.9493 37.0325 67.7469 37.1354 67.4821 37.1354C66.9546 37.1354 66.6908 36.7568 66.6908 35.9996ZM67.1647 35.9879C67.1647 36.5109 67.2754 36.7724 67.4966 36.7724C67.7141 36.7724 67.8228 36.5031 67.8228 35.9645C67.8228 35.4239 67.717 35.1536 67.5053 35.1536C67.2783 35.1536 67.1647 35.4317 67.1647 35.9879Z" fill="#0A1013"/>
<path d="M64.8587 35.9996C64.8587 35.6073 64.9302 35.3077 65.0732 35.1009C65.2162 34.894 65.423 34.7906 65.6936 34.7906C66.2095 34.7906 66.4675 35.176 66.4675 35.9469C66.4675 36.3265 66.3975 36.6197 66.2574 36.8266C66.1173 37.0325 65.9148 37.1354 65.6501 37.1354C65.1225 37.1354 64.8587 36.7568 64.8587 35.9996ZM65.3327 35.9879C65.3327 36.5109 65.4433 36.7724 65.6646 36.7724C65.882 36.7724 65.9907 36.5031 65.9907 35.9645C65.9907 35.4239 65.8849 35.1536 65.6733 35.1536C65.4462 35.1536 65.3327 35.4317 65.3327 35.9879Z" fill="#0A1013"/>
<path d="M63.1658 36.6553C63.2856 36.7334 63.4267 36.7724 63.589 36.7724C63.9514 36.7724 64.1364 36.5343 64.1441 36.0581L64.1354 36.0552C64.0369 36.2084 63.8847 36.285 63.6789 36.285C63.4924 36.285 63.3388 36.2191 63.218 36.0874C63.0981 35.9547 63.0382 35.7878 63.0382 35.5868C63.0382 35.3507 63.1107 35.1589 63.2557 35.0116C63.4006 34.8642 63.5895 34.7906 63.8224 34.7906C64.0649 34.7906 64.2553 34.8838 64.3934 35.0701C64.5316 35.2565 64.6007 35.5166 64.6007 35.8503C64.6007 36.2465 64.5171 36.5597 64.35 36.79C64.1838 37.0203 63.9441 37.1354 63.631 37.1354C63.4542 37.1354 63.2991 37.1066 63.1658 37.0491V36.6553ZM63.4977 35.5444C63.4977 35.6644 63.5262 35.7586 63.5832 35.8269C63.6412 35.8952 63.7199 35.9293 63.8195 35.9293C63.9084 35.9293 63.9813 35.8966 64.0383 35.8313C64.0963 35.7659 64.1253 35.6849 64.1253 35.5883C64.1253 35.4722 64.0963 35.3707 64.0383 35.2838C63.9813 35.197 63.9045 35.1536 63.8079 35.1536C63.7141 35.1536 63.6388 35.1911 63.5818 35.2663C63.5257 35.3414 63.4977 35.4341 63.4977 35.5444Z" fill="#0A1013"/>
<path d="M59.7191 35.9923C59.7191 35.6371 59.8215 35.3482 60.0264 35.1258C60.2322 34.9023 60.5037 34.7906 60.8409 34.7906C61.1617 34.7906 61.4197 34.8984 61.6149 35.114C61.8111 35.3297 61.9092 35.6068 61.9092 35.9454C61.9092 36.2987 61.8072 36.5855 61.6033 36.8061C61.4004 37.0256 61.1342 37.1354 60.8047 37.1354C60.4829 37.1354 60.2215 37.029 60.0206 36.8163C59.8196 36.6026 59.7191 36.3279 59.7191 35.9923ZM60.222 35.9659C60.222 36.1864 60.2747 36.367 60.38 36.5075C60.4853 36.647 60.6298 36.7168 60.8134 36.7168C61.0009 36.7168 61.1468 36.6499 61.2511 36.5163C61.3555 36.3816 61.4077 36.2011 61.4077 35.9747C61.4077 35.7386 61.3569 35.5522 61.2555 35.4156C61.154 35.278 61.011 35.2092 60.8264 35.2092C60.639 35.2092 60.4911 35.2794 60.3829 35.42C60.2757 35.5605 60.222 35.7425 60.222 35.9659Z" fill="#0A1013"/>
<path d="M57.9711 36.525C58.1518 36.6763 58.3571 36.7519 58.5871 36.7519C58.7175 36.7519 58.8156 36.7295 58.8813 36.6846C58.947 36.6387 58.9799 36.5802 58.9799 36.5089C58.9799 36.4475 58.9538 36.3894 58.9016 36.3348C58.8494 36.2801 58.7117 36.206 58.4885 36.1123C58.1378 35.962 57.9624 35.7434 57.9624 35.4566C57.9624 35.2458 58.0416 35.0823 58.2001 34.9662C58.3595 34.8491 58.5702 34.7906 58.832 34.7906C59.0514 34.7906 59.2355 34.8194 59.3843 34.8769V35.3307C59.2335 35.2272 59.0572 35.1755 58.8552 35.1755C58.7373 35.1755 58.6431 35.1975 58.5726 35.2414C58.5021 35.2843 58.4668 35.3424 58.4668 35.4156C58.4668 35.4741 58.4909 35.5283 58.5393 35.578C58.5876 35.6268 58.7069 35.6932 58.8973 35.7771C59.1205 35.8737 59.2736 35.9757 59.3567 36.083C59.4408 36.1903 59.4828 36.3182 59.4828 36.4665C59.4828 36.6841 59.4065 36.85 59.2538 36.9642C59.1011 37.0783 58.8842 37.1354 58.603 37.1354C58.346 37.1354 58.1354 37.0934 57.9711 37.0095V36.525Z" fill="#0A1013"/>
<path d="M57.5537 34.8286V37.0959H57.0753V34.8286H57.5537Z" fill="#0A1013"/>
<path d="M55.7187 37.0959H55.4361V36.1752C55.4361 35.8425 55.3158 35.6761 55.0752 35.6761C54.9505 35.6761 54.8481 35.7229 54.7679 35.8166C54.6877 35.9103 54.6476 36.0289 54.6476 36.1723V37.0959H54.3635V35.477H54.6476V35.7449H54.6534C54.7742 35.541 54.9495 35.439 55.1795 35.439C55.3554 35.439 55.4892 35.4961 55.581 35.6102C55.6728 35.7234 55.7187 35.8888 55.7187 36.1064V37.0959Z" fill="#0A1013"/>
<path d="M54.0736 37.0959H53.7533L53.5243 36.4753H52.5894L52.3735 37.0959H52.0531L52.9083 34.8286H53.2185L54.0736 37.0959ZM53.4344 36.2191L53.0953 35.2765C53.0846 35.2463 53.073 35.1936 53.0605 35.1184H53.0532C53.0426 35.1867 53.0305 35.2394 53.017 35.2765L52.6807 36.2191H53.4344Z" fill="#0A1013"/>
</svg>
